<?xml version="1.0" encoding="iso-8859-1"?>
<!-- Generator: Adobe Illustrator 22.0.1, SVG Export Plug-In . SVG Version: 6.00 Build 0)  -->
<svg version="1.1" id="Layer_1" xmlns="http://www.w3.org/2000/svg" xmlns:xlink="http://www.w3.org/1999/xlink" x="0px" y="0px"
	 viewBox="0 0 288 288" style="enable-background:new 0 0 288 288;" xml:space="preserve">
<polygon style="fill:#FFFFFF;" points="81.782,199.948 137.296,220.081 137.296,21.333 81.782,65.213 "/>
<polygon style="fill:#FFFFFF;" points="206.218,199.948 150.704,220.081 150.704,21.333 206.218,65.213 "/>
<path style="fill:#FFFFFF;" d="M192.998,252.942l-6.701-18.741h5.169l3.925,12.904h0.095l3.925-12.904h5.169l-6.701,18.741v13.725
	h-4.882V252.942z"/>
<path style="fill:#FFFFFF;" d="M150.448,234.2h4.69l6.27,17.191h0.096l6.222-17.191h4.738v32.466h-4.882v-19.744h-0.095
	l-4.811,16.713h-2.441l-4.81-16.713h-0.096v19.744h-4.882V234.2z"/>
<path style="fill:#FFFFFF;" d="M119.114,234.2v32.466h5.504v-28.338h6.88v10.47h-5.564v2.812l5.803,15.057h6.102l-6.342-15.176h2.16
	c1.583,0,2.866-1.283,2.866-2.866v-11.646c0-1.535-1.244-2.779-2.779-2.779H119.114z"/>
<path style="fill:#FFFFFF;" d="M93.963,234.2h5.823l6.78,32.466h-4.882l-1.46-6.302h-6.653l-1.412,6.302h-4.882L93.963,234.2z
	 M96.946,243.548h-0.096l-2.393,11.764h4.882L96.946,243.548z"/>
</svg>
