<?xml version="1.0" encoding="iso-8859-1"?>
<!-- Generator: Adobe Illustrator 22.0.1, SVG Export Plug-In . SVG Version: 6.00 Build 0)  -->
<svg version="1.1" id="Layer_1" xmlns="http://www.w3.org/2000/svg" xmlns:xlink="http://www.w3.org/1999/xlink" x="0px" y="0px"
	 viewBox="0 0 288 288" style="enable-background:new 0 0 288 288;" xml:space="preserve">
<polygon style="fill:#B0B0B0;" points="135.649,187.662 84.953,206.673 84.953,19 135.649,60.434 "/>
<polygon style="fill:#B0B0B0;" points="148.323,187.662 199.019,206.673 199.019,19 148.323,60.434 "/>
<path style="fill:#B0B0B0;" d="M152.395,227.9h-6.498V262h-7.26v-34.1h-6.736l-1.676-6.546h24.556L152.395,227.9z"/>
<path style="fill:#B0B0B0;" d="M193.761,262h-7.329c-3.115,0-5.64-2.525-5.64-5.64v-7.254h7.212l0.011,5.863
	c0.001,0.417,0.339,0.755,0.757,0.755h2.961c0.418,0,0.757-0.34,0.757-0.758l-0.01-5.622c0-1.871-0.956-3.612-2.535-4.615
	l-6.075-3.861c-1.791-1.391-2.838-3.532-2.838-5.799v-8.373c0-3.386,2.745-6.13,6.13-6.13h6.128c3.431,0,6.212,2.781,6.212,6.212
	v6.109h-6.546v-4.796c0-0.387-0.314-0.701-0.701-0.701h-4.173c-0.387,0-0.701,0.314-0.701,0.701v6.55l8.145,5.767
	c2.627,1.86,4.189,4.879,4.189,8.099v7.539C199.715,259.334,197.049,262,193.761,262z"/>
<g>
	<path style="fill:#B0B0B0;" d="M103.395,246.541v9.122c0,3.5-2.837,6.337-6.337,6.337H83.584v-40.645h13.091
		c3.615,0,6.546,2.931,6.546,6.546v6.431c0,2.285-0.939,4.47-2.597,6.042l-0.782,0.742l0,0
		C101.999,242.056,103.395,244.187,103.395,246.541z M96.08,237.489V227.39h-5.284v10.099H96.08z M96.804,255.419v-8.683
		c-0.002-1.369-0.988-2.539-2.337-2.772h-3.673l0.013,11.456H96.804z"/>
</g>
</svg>
