<?xml version="1.0" encoding="iso-8859-1"?>
<!-- Generator: Adobe Illustrator 23.0.0, SVG Export Plug-In . SVG Version: 6.00 Build 0)  -->
<svg version="1.1" id="Layer_1" xmlns="http://www.w3.org/2000/svg" xmlns:xlink="http://www.w3.org/1999/xlink" x="0px" y="0px"
	 viewBox="0 0 288 288" style="enable-background:new 0 0 288 288;" xml:space="preserve">
<g>
	<polygon style="fill:none;stroke:#000000;stroke-width:2;stroke-linejoin:round;stroke-miterlimit:10;" points="132.941,148.793 
		153.044,148.793 162.884,123.771 143.203,95.936 123.382,124.333 	"/>
	<polygon style="fill:none;stroke:#000000;stroke-width:2;stroke-linejoin:round;stroke-miterlimit:10;" points="136.904,140.936 
		149.19,140.936 155.204,125.643 143.176,108.633 131.062,125.987 	"/>
	
		<line style="fill:none;stroke:#000000;stroke-width:2;stroke-linejoin:round;stroke-miterlimit:10;" x1="162.884" y1="123.771" x2="155.204" y2="125.643"/>
	
		<line style="fill:none;stroke:#000000;stroke-width:2;stroke-linejoin:round;stroke-miterlimit:10;" x1="143.203" y1="95.936" x2="143.176" y2="108.633"/>
	
		<line style="fill:none;stroke:#000000;stroke-width:2;stroke-linejoin:round;stroke-miterlimit:10;" x1="131.062" y1="125.987" x2="123.382" y2="124.333"/>
	
		<line style="fill:none;stroke:#000000;stroke-width:2;stroke-linejoin:round;stroke-miterlimit:10;" x1="136.904" y1="140.936" x2="132.941" y2="148.793"/>
	
		<line style="fill:none;stroke:#000000;stroke-width:2;stroke-linejoin:round;stroke-miterlimit:10;" x1="149.19" y1="140.936" x2="153.044" y2="148.793"/>
</g>
<path d="M19.44,171.192h3.381v-2.062h18.181c0,0,2.062,0.469,2.062,4.499c0,4.03-1.874,4.311-1.874,4.311H19.44v14.124l3.475-3.253
	v-7.404h19.4c2.174,0,3.936-1.762,3.936-3.936v-7.404c0-2.433-1.972-4.405-4.405-4.405H19.44V171.192z"/>
<rect x="52.905" y="177.565" width="25.585" height="2.812"/>
<polygon points="75.773,167.818 52.905,167.818 52.905,165.007 78.49,165.007 "/>
<rect x="52.905" y="189.252" width="25.585" height="2.812"/>
<polygon points="86.644,192.064 86.644,166.038 90.205,166.038 110.542,186.468 110.542,166.038 114.01,166.038 114.01,188.53 
	110.449,192.064 90.018,171.099 90.018,188.811 "/>
<polygon points="241.194,192.064 241.194,169.124 244.755,166.038 265.092,186.468 265.092,169.124 268.56,166.038 268.56,192.064 
	264.999,192.064 244.568,171.099 244.568,192.064 "/>
<polygon points="144,166.038 118.602,166.038 118.602,169.318 129.567,169.318 129.567,192.064 132.941,188.999 132.941,169.318 
	144,169.318 "/>
<polygon points="142.126,189.186 144.75,192.064 155.996,172.036 166.867,192.064 169.304,189.655 156.839,166.038 154.871,166.038 
	"/>
<path d="M230.449,166.038h-18.168c-2.17,0-3.929,1.759-3.929,3.929v18.168c0,2.17,1.759,3.929,3.929,3.929h18.168
	c2.17,0,3.929-1.759,3.929-3.929v-18.168C234.378,167.797,232.619,166.038,230.449,166.038z M231.292,185.464
	c0,1.941-1.573,3.514-3.514,3.514h-12.826c-1.941,0-3.514-1.573-3.514-3.514v-12.826c0-1.941,1.574-3.514,3.514-3.514h12.826
	c1.941,0,3.514,1.573,3.514,3.514V185.464z"/>
<path d="M200.92,172.921v-2.954c0-2.17-1.759-3.929-3.929-3.929h-18.168c-2.17,0-3.929,1.759-3.929,3.929v18.168
	c0,2.17,1.759,3.929,3.929,3.929h18.168c2.17,0,3.929-1.759,3.929-3.929V181.9v-0.773v-2.46h-13.013v3.233h9.927v3.564
	c0,1.941-1.573,3.514-3.514,3.514h-12.826c-1.941,0-3.514-1.573-3.514-3.514v-12.826c0-1.941,1.574-3.514,3.514-3.514h12.826
	c1.941,0,3.514,1.573,3.514,3.514v2.965L200.92,172.921z"/>
</svg>
