<?xml version="1.0" encoding="iso-8859-1"?>
<!-- Generator: Adobe Illustrator 23.0.0, SVG Export Plug-In . SVG Version: 6.00 Build 0)  -->
<svg version="1.1" id="Layer_1" xmlns="http://www.w3.org/2000/svg" xmlns:xlink="http://www.w3.org/1999/xlink" x="0px" y="0px"
	 viewBox="0 0 288 288" style="enable-background:new 0 0 288 288;" xml:space="preserve">
<g>
	<path style="fill:none;stroke:#FFFFFF;stroke-width:2;stroke-linejoin:round;stroke-miterlimit:10;" d="M144.052,76.133
		l8.745-22.201c2.182-6.163-2.388-12.631-8.926-12.632h0c-6.593-0.002-11.171,6.565-8.889,12.75L144.052,76.133z"/>
	<path style="fill:none;stroke:#FFFFFF;stroke-width:2;stroke-linejoin:bevel;stroke-miterlimit:10;" d="M144.052,76.133l0-26.937
		c0-3.186,7.173-4.201,8.971-0.89"/>
	<path style="fill:none;stroke:#FFFFFF;stroke-width:2;stroke-linejoin:round;stroke-miterlimit:10;" d="M144.052,49.196
		c0-3.105-7.803-3.41-9.336-0.915"/>
</g>
<g>
	<path style="fill:none;stroke:#FFFFFF;stroke-width:2;stroke-linejoin:round;stroke-miterlimit:10;" d="M144.052,97.007
		l8.745,22.201c2.182,6.163-2.388,12.631-8.926,12.632h0c-6.593,0.002-11.171-6.565-8.889-12.75L144.052,97.007z"/>
	<path style="fill:none;stroke:#FFFFFF;stroke-width:2;stroke-linejoin:bevel;stroke-miterlimit:10;" d="M144.052,97.007l0,26.937
		c0,3.186,7.173,4.201,8.971,0.89"/>
	<path style="fill:none;stroke:#FFFFFF;stroke-width:2;stroke-linejoin:round;stroke-miterlimit:10;" d="M144.052,123.944
		c0,3.105-7.803,3.41-9.336,0.915"/>
</g>
<g>
	<path style="fill:none;stroke:#FFFFFF;stroke-width:2;stroke-linejoin:round;stroke-miterlimit:10;" d="M154.106,86.754
		l22.201,8.745c6.163,2.182,12.631-2.388,12.632-8.926v0c0.002-6.593-6.565-11.171-12.75-8.889L154.106,86.754z"/>
	<path style="fill:none;stroke:#FFFFFF;stroke-width:2;stroke-linejoin:bevel;stroke-miterlimit:10;" d="M154.106,86.754l26.937,0
		c3.186,0,4.201,7.173,0.89,8.971"/>
	<path style="fill:none;stroke:#FFFFFF;stroke-width:2;stroke-linejoin:round;stroke-miterlimit:10;" d="M181.043,86.754
		c3.105,0,3.41-7.803,0.915-9.336"/>
</g>
<circle style="fill:none;stroke:#FFFFFF;stroke-width:2;stroke-linejoin:round;stroke-miterlimit:10;" cx="143.868" cy="86.57" r="10.073"/>
<path style="fill:none;stroke:#FFFFFF;stroke-width:2;stroke-linejoin:round;stroke-miterlimit:10;" d="M155.71,99.552
	L143.868,86.57l11.842-12.585C163.104,84.338,160.652,92.253,155.71,99.552z"/>
<polygon style="fill:none;stroke:#FFFFFF;stroke-width:2;stroke-linejoin:round;stroke-miterlimit:10;" points="169.783,60.234 
	160.381,64.638 154.713,75.043 165.508,70.707 "/>
<line style="fill:none;stroke:#FFFFFF;stroke-width:2;stroke-linejoin:round;stroke-miterlimit:10;" x1="160.381" y1="64.638" x2="165.508" y2="70.707"/>
<path style="fill:none;stroke:#FFFFFF;stroke-width:2;stroke-linejoin:round;stroke-miterlimit:10;" d="M169.783,60.234
	c6.875,0.215,13.843,7.224,16.383,14.449h-6.123C179.092,68.873,175.378,64.175,169.783,60.234z"/>
<path style="fill:none;stroke:#FFFFFF;stroke-width:2;stroke-linejoin:round;stroke-miterlimit:10;" d="M170.376,60.234
	c-0.391-6.868-7.576-13.654-14.863-16.008l0.157,6.121C161.501,51.148,166.293,54.741,170.376,60.234z"/>
<polygon style="fill:none;stroke:#FFFFFF;stroke-width:2;stroke-linejoin:round;stroke-miterlimit:10;" points="171.018,112.882 
	166.072,103.754 155.354,98.703 160.313,109.226 "/>
<line style="fill:none;stroke:#FFFFFF;stroke-width:2;stroke-linejoin:round;stroke-miterlimit:10;" x1="166.072" y1="103.754" x2="160.313" y2="109.226"/>
<path style="fill:none;stroke:#FFFFFF;stroke-width:2;stroke-linejoin:round;stroke-miterlimit:10;" d="M170.555,113.474
	c-0.715,6.841-8.213,13.281-15.603,15.288l0.446-6.107C161.261,122.131,166.217,118.768,170.555,113.474z"/>
<path style="fill:none;stroke:#FFFFFF;stroke-width:2;stroke-linejoin:round;stroke-miterlimit:10;" d="M170.157,113.474
	c6.833-0.791,13.188-8.36,15.113-15.773l-6.102,0.514C178.71,104.085,175.402,109.077,170.157,113.474z"/>
<g>
	<path style="fill:none;stroke:#FFFFFF;stroke-width:2;stroke-linejoin:round;stroke-miterlimit:10;" d="M133.416,86.681
		l-22.201,8.745c-6.163,2.182-12.631-2.388-12.632-8.926v0c-0.002-6.593,6.565-11.171,12.75-8.889L133.416,86.681z"/>
	<path style="fill:none;stroke:#FFFFFF;stroke-width:2;stroke-linejoin:bevel;stroke-miterlimit:10;" d="M133.416,86.681l-26.937,0
		c-3.186,0-4.201,7.173-0.89,8.971"/>
	<path style="fill:none;stroke:#FFFFFF;stroke-width:2;stroke-linejoin:round;stroke-miterlimit:10;" d="M106.479,86.681
		c-3.105,0-3.41-7.803-0.915-9.336"/>
</g>
<path style="fill:none;stroke:#FFFFFF;stroke-width:2;stroke-linejoin:round;stroke-miterlimit:10;" d="M131.812,99.479
	l11.842-12.982l-11.842-12.585C124.418,84.265,126.87,92.18,131.812,99.479z"/>
<polygon style="fill:none;stroke:#FFFFFF;stroke-width:2;stroke-linejoin:round;stroke-miterlimit:10;" points="117.74,60.161 
	127.141,64.565 132.809,74.971 122.014,70.634 "/>
<line style="fill:none;stroke:#FFFFFF;stroke-width:2;stroke-linejoin:round;stroke-miterlimit:10;" x1="127.141" y1="64.565" x2="122.014" y2="70.634"/>
<path style="fill:none;stroke:#FFFFFF;stroke-width:2;stroke-linejoin:round;stroke-miterlimit:10;" d="M117.74,60.161
	c-6.875,0.215-13.843,7.224-16.383,14.449h6.123C108.43,68.8,112.144,64.102,117.74,60.161z"/>
<path style="fill:none;stroke:#FFFFFF;stroke-width:2;stroke-linejoin:round;stroke-miterlimit:10;" d="M117.146,60.161
	c0.391-6.868,7.576-13.654,14.863-16.008l-0.157,6.121C126.021,51.075,121.23,54.668,117.146,60.161z"/>
<polygon style="fill:none;stroke:#FFFFFF;stroke-width:2;stroke-linejoin:round;stroke-miterlimit:10;" points="116.504,112.809 
	121.45,103.681 132.169,98.63 127.209,109.153 "/>
<line style="fill:none;stroke:#FFFFFF;stroke-width:2;stroke-linejoin:round;stroke-miterlimit:10;" x1="121.45" y1="103.681" x2="127.209" y2="109.153"/>
<path style="fill:none;stroke:#FFFFFF;stroke-width:2;stroke-linejoin:round;stroke-miterlimit:10;" d="M116.967,113.402
	c0.715,6.841,8.213,13.281,15.603,15.288l-0.446-6.107C126.261,122.058,121.305,118.695,116.967,113.402z"/>
<path style="fill:none;stroke:#FFFFFF;stroke-width:2;stroke-linejoin:round;stroke-miterlimit:10;" d="M117.365,113.402
	c-6.833-0.791-13.188-8.36-15.113-15.773l6.102,0.514C108.812,104.012,112.12,109.004,117.365,113.402z"/>
<polygon style="fill:none;stroke:#FFFFFF;stroke-width:2;stroke-linejoin:round;stroke-miterlimit:10;" points="129.819,136.743 
	137.662,136.743 133.74,162.719 "/>
<polygon style="fill:none;stroke:#FFFFFF;stroke-width:2;stroke-linejoin:round;stroke-miterlimit:10;" points="150.319,136.743 
	158.162,136.743 154.241,162.719 "/>
<polygon style="fill:none;stroke:#FFFFFF;stroke-width:2;stroke-linejoin:round;stroke-miterlimit:10;" points="139.395,155.928 
	148.723,156.044 144.052,179.378 "/>
<path style="fill:#FFFFFF;" d="M90.914,197.217c-1.475-1.532-3.54-2.35-5.666-2.35H69.929l3.303,3.948h1.773v12.166h-1.209
	l-3.867,3.867h15.05c1.723,0,3.41-0.539,4.781-1.583c1.895-1.445,4.018-4.038,4.018-8.407
	C93.778,201.173,92.392,198.752,90.914,197.217z M79.033,211.384v-12.65c2.014,0,10.394-1.773,10.394,6.325
	C89.427,213.156,81.853,211.384,79.033,211.384z"/>
<path style="fill:#FFFFFF;" d="M111.503,215.251h13.616l-3.062-4.19h-2.417l-3.384-5.237c0,0,3.706-0.564,3.706-5.076
	c0-1.597-0.565-2.8-1.296-3.689c-1.179-1.434-2.993-2.193-4.85-2.193H96.759l2.981,4.109h2.014v12.247h-1.773l-3.223,4.029h12.972
	l-2.337-4.029h-1.45v-4.915h6.365l2.578,4.673h-1.531L111.503,215.251z M113.276,203.085h-7.332v-4.029l6.21,0.071
	c0.751,0.009,1.499,0.221,2.095,0.678c0.448,0.344,0.84,0.827,0.84,1.466C115.089,202.763,113.276,203.085,113.276,203.085z"/>
<path style="fill:#FFFFFF;" d="M223.577,246.432h13.616l-3.062-4.19h-2.417l-3.384-5.237c0,0,3.706-0.564,3.706-5.076
	c0-1.597-0.565-2.8-1.296-3.689c-1.179-1.434-2.993-2.193-4.85-2.193h-17.059l2.981,4.109h2.014v12.247h-1.773l-3.223,4.029h12.972
	l-2.337-4.029h-1.45v-4.915h6.365l2.578,4.673h-1.531L223.577,246.432z M225.349,234.266h-7.332v-4.029l6.21,0.071
	c0.751,0.009,1.499,0.221,2.095,0.678c0.448,0.344,0.84,0.827,0.84,1.466C227.162,233.943,225.349,234.266,225.349,234.266z"/>
<polygon style="fill:#FFFFFF;" points="128.342,194.867 131.485,198.976 133.257,198.976 133.257,211.142 131.888,211.142 
	127.859,215.251 146.954,215.251 150.58,211.223 138.253,211.223 138.253,206.791 144.94,206.791 144.94,202.843 137.93,202.843 
	137.93,198.734 147.035,198.734 150.58,194.867 "/>
<polygon style="fill:#FFFFFF;" points="183.345,226.048 186.487,230.157 188.26,230.157 188.26,242.323 186.89,242.323 
	182.862,246.432 201.957,246.432 205.583,242.403 193.255,242.403 193.255,237.972 199.943,237.972 199.943,234.024 
	192.933,234.024 192.933,229.915 202.038,229.915 205.583,226.048 "/>
<path style="fill:#FFFFFF;" d="M167.58,215.251h13.214l-3.223-4.351h-1.773l-6.285-12.005h2.014l2.981-4.029h-15.308l2.659,4.109
	h1.611l-5.721,12.086h-2.337l-2.739,4.19h13.455l-2.095-4.19h-2.175l1.128-2.498h7.01l0.967,2.417h-1.773L167.58,215.251z
	 M164.438,205.744l2.296-3.384l1.732,3.384H164.438z"/>
<path style="fill:#FFFFFF;" d="M87.654,246.432h13.213l-3.223-4.351h-1.773l-6.285-12.005h2.014l2.981-4.029H79.275l2.659,4.109
	h1.611l-5.721,12.086h-2.337l-2.739,4.19h13.455l-2.095-4.19h-2.175l1.128-2.498h7.01l0.967,2.417h-1.773L87.654,246.432z
	 M84.512,236.924l2.296-3.384l1.732,3.384H84.512z"/>
<polygon style="fill:#FFFFFF;" points="184.097,215.251 186.917,211.142 189.495,211.142 189.495,199.056 187.239,199.056 
	184.097,194.867 201.098,194.867 199.083,198.976 197.391,198.976 201.42,207.597 205.529,198.976 204.159,198.976 202.145,194.867 
	218.098,194.867 214.633,199.056 213.103,199.056 213.103,210.9 214.472,210.9 218.098,215.251 204.884,215.251 206.737,210.9 
	208.671,210.9 208.671,201.752 202.951,215.251 199.97,215.251 193.604,200.748 193.604,210.9 195.135,210.9 197.15,215.251 "/>
<path style="fill:#FFFFFF;" d="M61.563,242.296c-3.508,0-6.352-2.844-6.352-6.352s2.844-6.352,6.352-6.352
	c3.004,0,5.515,2.088,6.176,4.891l4.008-1.979l-0.422-7.316l-3.081,2.342c-1.834-1.462-4.152-2.342-6.681-2.342
	c-5.94,0-10.756,4.816-10.756,10.756c0,5.94,4.816,10.756,10.756,10.756c4.666,0,8.627-2.977,10.116-7.13l-4.145-1.477
	C66.652,240.542,64.315,242.296,61.563,242.296z"/>
<path style="fill:#FFFFFF;" d="M136.977,242.296c-3.508,0-6.352-2.844-6.352-6.352s2.844-6.352,6.352-6.352
	c3.004,0,5.515,2.088,6.176,4.891l4.008-1.979l-0.422-7.316l-3.081,2.342c-1.834-1.462-4.152-2.342-6.681-2.342
	c-5.94,0-10.756,4.816-10.756,10.756c0,5.94,4.816,10.756,10.756,10.756c4.666,0,8.627-2.977,10.116-7.13l-4.145-1.477
	C142.066,240.542,139.729,242.296,136.977,242.296z"/>
<polygon style="fill:#FFFFFF;" points="120.93,229.915 123.669,226.048 99.176,226.048 102.56,229.915 109.086,229.915 
	109.086,242.162 106.911,242.162 104.171,246.432 118.916,246.432 115.773,242.162 113.92,242.162 113.92,229.915 "/>
<polygon style="fill:#FFFFFF;" points="173.775,242.121 173.775,229.794 175.661,229.794 178.941,226.048 165.083,226.048 
	167.42,229.794 169.747,229.794 169.747,234.642 160.168,234.642 160.168,229.794 162.101,229.794 164.438,226.048 150.58,226.048 
	153.86,229.794 156.139,229.794 156.139,242.121 153.924,242.121 151.104,246.7 164.196,246.7 161.9,242.121 160.168,242.121 
	160.168,237.864 169.747,237.864 169.747,242.121 167.621,242.121 165.324,246.7 178.417,246.7 175.597,242.121 "/>
</svg>
