<?xml version="1.0" encoding="iso-8859-1"?>
<!-- Generator: Adobe Illustrator 22.0.1, SVG Export Plug-In . SVG Version: 6.00 Build 0)  -->
<svg version="1.1" id="Layer_1" xmlns="http://www.w3.org/2000/svg" xmlns:xlink="http://www.w3.org/1999/xlink" x="0px" y="0px"
	 viewBox="0 0 288 288" style="enable-background:new 0 0 288 288;" xml:space="preserve">
<rect x="63.972" y="100.529" style="fill:none;stroke:#FFFFFF;stroke-width:2;stroke-linecap:round;stroke-miterlimit:10;" width="17.807" height="17.807"/>
<rect x="63.972" y="126.298" style="fill:none;stroke:#FFFFFF;stroke-width:2;stroke-linecap:round;stroke-miterlimit:10;" width="17.807" height="61.173"/>
<rect x="137.506" y="100.529" style="fill:none;stroke:#FFFFFF;stroke-width:2;stroke-linecap:round;stroke-miterlimit:10;" width="17.807" height="86.941"/>
<polygon style="fill:none;stroke:#FFFFFF;stroke-width:2;stroke-linecap:round;stroke-miterlimit:10;" points="114.88,100.529 
	114.88,170.082 109.643,170.082 109.643,100.529 91.835,100.529 91.835,170.082 91.835,187.471 132.687,187.471 132.687,170.082 
	132.687,100.529 "/>
<polygon style="fill:none;stroke:#FFFFFF;stroke-width:2;stroke-linecap:round;stroke-miterlimit:10;" points="206.221,100.529 
	206.221,170.082 200.983,170.082 200.983,100.529 200.774,100.529 159.922,100.529 159.922,117.918 159.922,187.471 
	177.729,187.471 177.729,117.918 182.966,117.918 182.966,187.471 183.176,187.471 224.028,187.471 224.028,170.082 
	224.028,100.529 "/>
</svg>
