<?xml version="1.0" encoding="iso-8859-1"?>
<!-- Generator: Adobe Illustrator 23.0.0, SVG Export Plug-In . SVG Version: 6.00 Build 0)  -->
<svg version="1.1" id="Layer_1" xmlns="http://www.w3.org/2000/svg" xmlns:xlink="http://www.w3.org/1999/xlink" x="0px" y="0px"
	 viewBox="0 0 288 288" style="enable-background:new 0 0 288 288;" xml:space="preserve">
<path style="fill:none;stroke:#F0575E;stroke-width:2;stroke-miterlimit:10;" d="M167.196,178.272
	c-35.483,0-64.185-29.036-63.64-64.644c0.519-33.944,28.108-61.802,62.045-62.632c31.884-0.78,58.607,21.897,64.167,51.995
	c0.288,1.556,1.642,2.686,3.225,2.686l0,0c1.99,0,3.53-1.757,3.266-3.729c-6.144-45.904-45.853-81.184-93.634-80.332
	c-50.668,0.904-91.528,42.933-91.073,93.606c0.457,50.844,41.815,91.92,92.767,91.92c47.471,0,86.611-35.657,92.107-81.648
	c0.229-1.918-1.271-3.61-3.203-3.61l0,0c-1.58,0-2.925,1.148-3.17,2.708C225.269,155.007,198.956,178.272,167.196,178.272z"/>
<polyline style="fill:none;stroke:#F0575E;stroke-width:2;stroke-linecap:square;stroke-linejoin:round;stroke-miterlimit:10;" points="
	141.141,134.264 141.141,96.222 169.391,124.472 197.867,95.997 197.867,134.264 "/>
<line style="fill:none;stroke:#F0575E;stroke-width:2;stroke-linecap:square;stroke-linejoin:round;stroke-miterlimit:10;" x1="131.236" y1="123.459" x2="158.699" y2="123.459"/>
<line style="fill:none;stroke:#F0575E;stroke-width:2;stroke-linecap:square;stroke-linejoin:round;stroke-miterlimit:10;" x1="182.335" y1="123.459" x2="209.797" y2="123.459"/>
<path style="fill:none;stroke:#F0575E;stroke-width:2;stroke-linecap:round;stroke-linejoin:round;stroke-miterlimit:10;" d="
	M89.142,161.277c0,0-1.801,4.952-3.602,7.428c-1.801,2.476-9.004,6.078-10.13-7.654c-1.126-13.731,16.883-41.194,16.883-41.194
	H60.779c0,0,2.026,6.303,5.628,9.454"/>
<path style="fill:none;stroke:#F0575E;stroke-width:2;stroke-linecap:round;stroke-linejoin:round;stroke-miterlimit:10;" d="
	M72.934,135.39c0,0,8.104,7.203,15.982,8.779"/>
<path style="fill:none;stroke:#F0575E;stroke-width:2;stroke-linecap:round;stroke-linejoin:round;stroke-miterlimit:10;" d="
	M91.393,152.498c0,0,3.827-10.58,0-21.61"/>
<path style="fill:none;stroke:#F0575E;stroke-width:2;stroke-linecap:round;stroke-linejoin:round;stroke-miterlimit:10;" d="
	M82.389,126.836c-9.454,0-26.28,11.512-8.329,22.285"/>
<path style="fill:none;stroke:#F0575E;stroke-width:2;stroke-linecap:round;stroke-linejoin:round;stroke-miterlimit:10;" d="
	M80.926,153.623c0,0,9.567,4.502,13.169,5.628"/>
<path style="fill:none;stroke:#F0575E;stroke-width:2;stroke-linecap:round;stroke-linejoin:round;stroke-miterlimit:10;" d="
	M97.246,147.77c0,0,2.476,10.805-1.801,30.614c5.177,1.351,13.281,0,13.281,0"/>
<path style="fill:none;stroke:#F0575E;stroke-width:2;stroke-linecap:round;stroke-linejoin:round;stroke-miterlimit:10;" d="
	M148.664,194.855c-3.27,2.286-6.777,4.315-9.586,4.914c0,0-12.118-14.632-13.018-22.06h-9.004"/>
<path style="fill:none;stroke:#F0575E;stroke-width:2;stroke-linecap:round;stroke-miterlimit:10;" d="M169.504,187.614
	c0,0,30.614-3.602,51.549-29.489c0,0-11.255,23.636-46.822,38.042c0,0-12.606-6.078-15.532-9.454c0,0-1.595,1.497-3.981,3.484"/>
<path style="fill:none;stroke:#F0575E;stroke-width:2;stroke-linecap:round;stroke-linejoin:round;stroke-miterlimit:10;" d="
	M134.497,187.83c3.115-1.265,6.087-2.584,8.435-3.818c0,0,13.966,14.857,15.767,14.632c0.779-0.097,2.907-2.175,5.07-4.502"/>
<path style="fill:none;stroke:#F0575E;stroke-width:2;stroke-linecap:round;stroke-linejoin:round;stroke-miterlimit:10;" d="
	M103.098,162.177c0,0,5.177,2.251,8.104,2.251c0,0,2.701,29.714,4.502,29.714c0.934,0,5.924-1.515,11.705-3.602"/>
<path style="fill:none;stroke:#F0575E;stroke-width:2;stroke-linecap:round;stroke-linejoin:round;stroke-miterlimit:10;" d="
	M89.367,66.508c0,0-1.801-4.952-3.602-7.428s-9.004-6.078-10.13,7.654s16.883,41.194,16.883,41.194H61.004
	c0,0,2.026-6.303,5.628-9.454"/>
<path style="fill:none;stroke:#F0575E;stroke-width:2;stroke-linecap:round;stroke-linejoin:round;stroke-miterlimit:10;" d="
	M73.16,92.395c0,0,8.104-7.203,15.982-8.779"/>
<path style="fill:none;stroke:#F0575E;stroke-width:2;stroke-linecap:round;stroke-linejoin:round;stroke-miterlimit:10;" d="
	M91.618,75.287c0,0,3.827,10.58,0,21.61"/>
<path style="fill:none;stroke:#F0575E;stroke-width:2;stroke-linecap:round;stroke-linejoin:round;stroke-miterlimit:10;" d="
	M82.614,100.949c-9.454,0-26.28-11.512-8.329-22.285"/>
<path style="fill:none;stroke:#F0575E;stroke-width:2;stroke-linecap:round;stroke-linejoin:round;stroke-miterlimit:10;" d="
	M81.151,74.162c0,0,9.567-4.502,13.169-5.628"/>
<path style="fill:none;stroke:#F0575E;stroke-width:2;stroke-linecap:round;stroke-linejoin:round;stroke-miterlimit:10;" d="
	M97.471,80.014c0,0,2.476-10.805-1.801-30.614c5.177-1.351,13.281,0,13.281,0"/>
<path style="fill:none;stroke:#F0575E;stroke-width:2;stroke-linecap:round;stroke-linejoin:round;stroke-miterlimit:10;" d="
	M148.889,32.929c-3.27-2.286-6.777-4.315-9.586-4.914c0,0-12.118,14.632-13.018,22.06h-9.004"/>
<path style="fill:none;stroke:#F0575E;stroke-width:2;stroke-linecap:round;stroke-miterlimit:10;" d="M169.729,40.171
	c0,0,30.614,3.602,51.549,29.489c0,0-11.255-23.636-46.822-38.042c0,0-12.606,6.078-15.532,9.454c0,0-1.595-1.497-3.981-3.484"/>
<path style="fill:none;stroke:#F0575E;stroke-width:2;stroke-linecap:round;stroke-linejoin:round;stroke-miterlimit:10;" d="
	M134.722,39.954c3.115,1.265,6.087,2.584,8.435,3.818c0,0,13.966-14.857,15.767-14.632c0.779,0.097,2.907,2.175,5.07,4.502"/>
<path style="fill:none;stroke:#F0575E;stroke-width:2;stroke-linecap:round;stroke-linejoin:round;stroke-miterlimit:10;" d="
	M103.323,65.608c0,0,5.177-2.251,8.104-2.251c0,0,2.701-29.714,4.502-29.714c0.934,0,5.924,1.515,11.705,3.602"/>
<path style="fill:#F0575E;" d="M216.001,242.417c-5.242,0-9.68,3.416-11.227,8.141c-1.547-4.725-5.985-8.141-11.227-8.141
	c-6.527,0-11.818,5.291-11.818,11.818c0,0.706,0.073,1.393,0.192,2.065c-2.409-4.507-5.673-10.801-5.673-10.801
	c-0.567-1.141-2.151-1.296-2.932-0.286l-4.618,7.58c-0.694,0.896-2.06,0.896-2.753,0l-4.034-7.58
	c-0.782-1.01-2.365-0.855-2.932,0.286l-5.387,10.843l-5.89-10.88c-0.653-1.207-2.405-1.206-3.057,0.001l-5.752,10.649
	c-0.514,0.952-1.904,0.929-2.385-0.04l-5.253-10.574c-0.567-1.141-2.151-1.296-2.932-0.286l-4.618,7.58
	c-0.694,0.896-2.06,0.896-2.753,0l-4.034-7.58c-0.782-1.01-2.365-0.855-2.932,0.286l-5.588,11.248l-6.055-11.184
	c-0.653-1.207-2.405-1.206-3.057,0.001l-5.752,10.649c-0.514,0.952-1.904,0.929-2.385-0.04L85.893,245.6
	c-0.567-1.141-2.151-1.296-2.932-0.286l-4.618,7.58c-0.694,0.896-2.059,0.896-2.753,0l-4.034-7.58
	c-0.782-1.01-2.365-0.855-2.932,0.286l-8.117,16.339c-1.022,2.057,0.494,4.461,2.813,4.461h0.026c1.311,0,2.484-0.807,2.939-2.022
	l2.833-7.566c0.505-1.348,2.364-1.519,3.112-0.286l2.468,7.09c0.855,1.746,3.076,1.746,4.101-0.004l3.488-7.072
	c0.747-1.236,2.61-1.066,3.114,0.285l3.195,6.564c1.479,3.012,5.324,3.012,7.118,0.057l3.533-5.618
	c0.622-1.324,2.528-1.32,3.146,0.006l3.152,6.766c0.512,1.098,1.623,1.802,2.847,1.802c0.424,0,0.819-0.083,1.178-0.226
	c0.942-0.267,1.724-0.957,2.076-1.897l2.833-7.566c0.505-1.348,2.364-1.519,3.112-0.286l2.468,7.09
	c0.855,1.746,3.076,1.746,4.101-0.004l3.488-7.072c0.747-1.236,2.61-1.066,3.114,0.285l3.195,6.564
	c1.479,3.012,5.324,3.012,7.118,0.057l3.532-5.618c0.623-1.324,2.528-1.32,3.146,0.006l2.868,6.154
	c0.31,1.332,1.499,2.413,3.054,2.413h0.026c0.008,0,0.016-0.002,0.025-0.002c0.009,0,0.017,0.002,0.026,0.002h0
	c1.613,0,2.827-1.158,3.085-2.548l2.636-7.04c0.505-1.348,2.364-1.519,3.112-0.286l2.468,7.09c0.855,1.746,3.076,1.746,4.101-0.004
	l3.488-7.072c0.747-1.236,2.61-1.066,3.114,0.285l3.195,6.564c0.164,0.335,0.358,0.632,0.575,0.893
	c1.929,2.318,5.266,0.4,5.23-2.067c2.164,2.413,5.295,3.94,8.791,3.94c5.242,0,9.68-3.416,11.227-8.141
	c1.547,4.725,5.985,8.141,11.227,8.141c6.527,0,11.818-5.291,11.818-11.818C227.819,247.708,222.528,242.417,216.001,242.417z
	 M193.547,260.65c-3.543,0-6.415-2.872-6.415-6.416c0-3.543,2.872-6.415,6.415-6.415c3.543,0,6.415,2.872,6.415,6.415
	C199.963,257.778,197.09,260.65,193.547,260.65z M216.001,260.65c-3.543,0-6.415-2.872-6.415-6.416c0-3.543,2.872-6.415,6.415-6.415
	c3.543,0,6.415,2.872,6.415,6.415C222.417,257.778,219.544,260.65,216.001,260.65z"/>
</svg>
