<?xml version="1.0" encoding="iso-8859-1"?>
<!-- Generator: Adobe Illustrator 23.0.0, SVG Export Plug-In . SVG Version: 6.00 Build 0)  -->
<svg version="1.1" id="Layer_1" xmlns="http://www.w3.org/2000/svg" xmlns:xlink="http://www.w3.org/1999/xlink" x="0px" y="0px"
	 viewBox="0 0 288 288" style="enable-background:new 0 0 288 288;" xml:space="preserve">
<path style="fill:#010101;" d="M49.707,144.361c0,0,3.082-1.583,3.082-5.164c0-7.414-5.165-7.83-5.165-7.83H31.381v26.156h17.076
	c0,0,5.248-0.5,5.248-6.664S49.707,144.361,49.707,144.361z M43.369,152.108h-5.407v-5.664h5.407c1.43,0,2.589,1.268,2.589,2.832
	C45.958,150.84,44.799,152.108,43.369,152.108z M43.369,142.029h-5.407v-5.664h5.407c1.43,0,2.589,1.268,2.589,2.832
	C45.958,140.761,44.799,142.029,43.369,142.029z"/>
<polygon style="fill:#010101;" points="64.95,151.108 64.95,131.366 57.703,131.366 57.703,157.522 59.369,157.522 64.95,157.522 
	78.944,157.522 78.944,151.108 "/>
<polygon style="fill:#010101;" points="81.027,157.522 88.246,157.522 94.132,141.057 99.63,157.522 107.182,157.522 97.02,131.366 
	90.634,131.366 "/>
<g>
	<path style="fill:#010101;" d="M118.552,130.783c-3.565,0-6.801,1.373-9.239,3.604l4.549,4.972c1.237-1.133,2.88-1.829,4.69-1.829
		c3.841,0,6.955,3.114,6.955,6.955c0,3.841-3.114,6.955-6.955,6.955c-2.201,0-4.159-1.025-5.433-2.62l-5.271,4.206
		c2.511,3.143,6.369,5.161,10.704,5.161c7.568,0,13.703-6.135,13.703-13.702C132.255,136.918,126.12,130.783,118.552,130.783z"/>
</g>
<polygon style="fill:#010101;" points="157.994,131.366 149.414,131.366 142.001,140.341 142.001,131.366 135.17,131.366 
	135.17,157.522 142.001,157.522 142.001,148.223 149.581,157.522 157.994,157.522 147.748,144 "/>
<polygon style="fill:#F6A7BB;" points="256.397,131.366 247.817,131.366 240.403,140.341 240.403,131.366 233.573,131.366 
	233.573,157.522 240.403,157.522 240.403,148.223 247.984,157.522 256.397,157.522 246.151,144 "/>
<path style="fill:#F6A7BB;" d="M181.047,131.366h-5.56h-3.415h-3.415v26.156h6.831v-8.205h5.56c4.957,0,8.975-4.018,8.975-8.975v0
	C190.022,135.385,186.004,131.366,181.047,131.366z M179.975,143.297h-4.489v-6.516h4.489c1.799,0,3.258,1.459,3.258,3.258
	C183.233,141.838,181.775,143.297,179.975,143.297z"/>
<rect x="193.396" y="131.366" style="fill:#F6A7BB;" width="6.497" height="26.156"/>
<polygon style="fill:#F6A7BB;" points="221.967,131.366 212.054,146.062 212.054,131.366 205.391,131.366 205.391,157.522 
	212.054,157.522 221.967,142.869 221.967,157.522 228.297,157.522 228.297,131.366 "/>
<rect x="18.72" y="116.9" style="fill:none;stroke:#010101;stroke-width:6;stroke-miterlimit:10;" width="250.56" height="54.199"/>
</svg>
