<?xml version="1.0" encoding="iso-8859-1"?>
<!-- Generator: Adobe Illustrator 23.0.0, SVG Export Plug-In . SVG Version: 6.00 Build 0)  -->
<svg version="1.1" id="Layer_1" xmlns="http://www.w3.org/2000/svg" xmlns:xlink="http://www.w3.org/1999/xlink" x="0px" y="0px"
	 viewBox="0 0 288 288" style="enable-background:new 0 0 288 288;" xml:space="preserve">
<linearGradient id="SVGID_1_" gradientUnits="userSpaceOnUse" x1="144" y1="18.2062" x2="144" y2="270.0787">
	<stop  offset="0" style="stop-color:#21314E"/>
	<stop  offset="0.385" style="stop-color:#395E72"/>
	<stop  offset="1" style="stop-color:#69C8C7"/>
</linearGradient>
<path style="fill:none;stroke:url(#SVGID_1_);stroke-width:2;stroke-miterlimit:10;" d="M66.194,174.334
	C59.197,41.001,136.554,11.458,220.907,20.787C229.847,109.805,195.771,186.919,66.194,174.334z M220.907,20.787L66.194,174.334
	 M144,26.093v142.789 M73.991,97.446H215.37 M143.551,196.491h-16.326v15.938h-17.881v16.715 M150.159,196.491l-0.097,15.063
	 M166.097,196.491l-32.07,32.07 M126.447,235.752l-17.104,0l0,33.042C123.92,265.101,126.447,252.856,126.447,235.752z
	 M137.914,268.794c14.869-7.93,17.298-14.383,17.298-33.236l-33.236,33.236 M139.177,252.176l14.481,0.097 M162.695,235.558v16.715
	h14.577 M162.695,268.794c8.213-1.069,16.229-9.524,16.229-33.236"/>
</svg>
