<?xml version="1.0" encoding="iso-8859-1"?>
<!-- Generator: Adobe Illustrator 22.0.1, SVG Export Plug-In . SVG Version: 6.00 Build 0)  -->
<svg version="1.1" id="Layer_1" xmlns="http://www.w3.org/2000/svg" xmlns:xlink="http://www.w3.org/1999/xlink" x="0px" y="0px"
	 viewBox="0 0 288 288" style="enable-background:new 0 0 288 288;" xml:space="preserve">
<g>
	<polygon style="fill:#010101;" points="68.732,74.183 48.867,59.978 68.732,79.149 	"/>
	<polygon style="fill:#010101;" points="69.309,87.234 59.646,82.268 69.886,90.352 	"/>
	<polygon style="fill:#010101;" points="69.309,95.202 34.431,77.186 69.309,101.092 	"/>
	<polygon style="fill:#010101;" points="69.886,103.98 52.217,98.667 69.886,108.599 	"/>
	<polygon style="fill:#010101;" points="70.81,111.371 46.769,104.596 47.783,107.983 71.734,117.03 	"/>
	<polygon style="fill:#010101;" points="69.886,120.61 48.482,115.837 70.81,124.46 	"/>
	<polygon style="fill:#010101;" points="43.72,125.513 70.81,131.851 70.81,125.692 43.093,122.76 	"/>
	<polygon style="fill:#010101;" points="69.886,133.885 47.25,133.885 69.886,137.087 	"/>
	<polygon style="fill:#010101;" points="65.267,140.145 18.301,141.706 62.187,144.478 	"/>
	<polygon style="fill:#010101;" points="58.029,148.328 42.169,151.869 58.029,151.099 	"/>
	<polygon style="fill:#010101;" points="56.599,159.261 21.227,164.342 55.412,155.103 	"/>
	<polygon style="fill:#010101;" points="55.412,167.268 44.687,169.27 55.412,164.342 	"/>
	<polygon style="fill:#010101;" points="55.412,176.815 25.23,186.054 55.412,172.196 	"/>
	<polygon style="fill:#010101;" points="55.412,182.821 50.176,187.748 55.412,186.208 	"/>
	<polygon style="fill:#010101;" points="56.599,195.334 32.776,207.612 55.566,191.55 	"/>
	<polygon style="fill:#010101;" points="58.029,217.929 44.325,227.323 56.336,215.62 	"/>
	<polygon style="fill:#010101;" points="76.123,227.015 63.111,240.719 72.966,226.245 	"/>
	<polygon style="fill:#010101;" points="95.41,233.636 81.281,254.27 92.638,230.864 	"/>
	<polygon style="fill:#010101;" points="112.464,239.334 101.146,264.433 108.268,239.334 	"/>
	<polygon style="fill:#010101;" points="139.026,242.721 137.486,248.573 136.216,242.721 	"/>
	<polygon style="fill:#010101;" points="120.394,242.721 118.893,246.879 118.893,242.721 	"/>
	<polygon style="fill:#010101;" points="130.711,242.721 123.358,269.669 125.321,241.643 	"/>
	<polygon style="fill:#010101;" points="224.161,73.721 244.025,59.516 224.161,78.687 	"/>
	<polygon style="fill:#010101;" points="223.584,86.772 233.246,81.806 223.006,89.89 	"/>
	<polygon style="fill:#010101;" points="223.584,94.74 258.462,76.724 223.584,100.63 	"/>
	<polygon style="fill:#010101;" points="223.006,103.518 240.676,98.205 223.006,108.137 	"/>
	<polygon style="fill:#010101;" points="223.006,110.909 247.047,104.134 246.034,107.521 222.082,116.568 	"/>
	<polygon style="fill:#010101;" points="223.006,120.148 244.41,115.375 222.082,123.998 	"/>
	<polygon style="fill:#010101;" points="250.097,125.051 223.006,131.389 223.006,125.23 250.724,122.298 	"/>
	<polygon style="fill:#010101;" points="37.128,123.462 23.229,120.21 35.665,121.525 	"/>
	<polygon style="fill:#010101;" points="223.006,133.423 245.642,133.423 223.006,136.625 	"/>
	<polygon style="fill:#010101;" points="227.626,139.684 274.592,141.244 230.706,144.016 	"/>
	<polygon style="fill:#010101;" points="234.863,147.866 250.724,151.407 234.863,150.637 	"/>
	<polygon style="fill:#010101;" points="236.294,158.799 271.666,163.88 237.481,154.641 	"/>
	<polygon style="fill:#010101;" points="237.481,166.806 248.205,168.808 237.481,163.88 	"/>
	<polygon style="fill:#010101;" points="237.481,176.353 267.662,185.592 237.481,171.734 	"/>
	<polygon style="fill:#010101;" points="237.481,182.359 242.717,187.286 237.481,185.746 	"/>
	<polygon style="fill:#010101;" points="236.294,194.872 260.117,207.15 237.327,191.088 	"/>
	<polygon style="fill:#010101;" points="234.863,217.468 248.568,226.861 236.557,215.158 	"/>
	<polygon style="fill:#010101;" points="216.77,226.553 229.782,240.257 219.927,225.783 	"/>
	<polygon style="fill:#010101;" points="197.483,233.174 211.611,253.808 200.255,230.402 	"/>
	<polygon style="fill:#010101;" points="180.429,238.872 191.747,263.971 184.625,238.872 	"/>
	<polygon style="fill:#010101;" points="145.089,242.259 147.091,271.055 149.247,242.259 	"/>
	<polygon style="fill:#010101;" points="153.867,242.259 155.406,248.111 156.677,242.259 	"/>
	<polygon style="fill:#010101;" points="172.499,242.259 174,246.417 174,242.259 	"/>
	<polygon style="fill:#010101;" points="162.182,242.259 169.535,269.207 167.571,241.181 	"/>
	<polygon style="fill:#010101;" points="118.796,53.01 104.552,20.673 113.638,52.394 	"/>
	<polygon style="fill:#010101;" points="125.225,53.78 120.759,41.923 122.992,53.78 	"/>
	<polygon style="fill:#010101;" points="135.85,55.474 127.188,16.207 130.268,54.858 	"/>
	<polygon style="fill:#010101;" points="141.509,56.398 139.353,39.613 139.353,56.398 	"/>
	<polygon style="fill:#010101;" points="175.964,53.01 190.207,20.673 181.122,52.394 	"/>
	<polygon style="fill:#010101;" points="169.535,53.78 174,41.923 171.767,53.78 	"/>
	<polygon style="fill:#010101;" points="158.91,55.474 167.571,16.207 164.492,54.858 	"/>
	<polygon style="fill:#010101;" points="153.251,56.398 155.406,39.613 155.406,56.398 	"/>
	<polygon style="fill:#010101;" points="145.551,56.398 147.091,16.207 149.247,56.398 	"/>
	<rect x="85.035" y="80.42" style="fill:#010101;" width="13.589" height="47.428"/>
	<path style="fill:#010101;" d="M118.276,104.134h-0.635v-1.418c2.848-0.533,5.005-3.028,5.005-6.031v-7.95v-3.83
		c0-2.477-2.008-4.485-4.485-4.485h-16.496v8.315h7.651v11.241h-8.325v7.083h8.902v13.705h-8.229v7.083h8.229h7.362
		c3.912,0,7.083-3.171,7.083-7.083v-10.567C124.34,106.848,121.625,104.134,118.276,104.134z"/>
	<rect x="139.854" y="91.969" style="fill:#010101;" width="13.397" height="35.879"/>
	<rect x="127.535" y="80.42" style="fill:#010101;" width="39.113" height="8.315"/>
	<rect x="170.343" y="120.148" style="fill:#010101;" width="20.326" height="7.699"/>
	<rect x="187.59" y="80.42" style="fill:#010101;" width="18.555" height="8.315"/>
	<path style="fill:#010101;" d="M205.275,102.678L205.275,102.678l-20.573-5.745V80.42h-6.448c-4.369,0-7.911,3.542-7.911,7.911
		v9.605c0,4.682,2.926,6.814,7.944,8.377l15,4.189v17.346h6.467c4.359,0,7.892-3.533,7.892-7.892v-14.244
		C207.646,104.615,206.53,103.075,205.275,102.678z"/>
</g>
<g>
	<polygon style="fill:#010101;" points="257.151,123.4 271.05,120.148 258.614,121.464 	"/>
	
		<line style="fill:none;stroke:#010101;stroke-miterlimit:10;stroke-dasharray:5;" x1="72.639" y1="69.949" x2="77.104" y2="69.949"/>
	
		<line style="fill:none;stroke:#010101;stroke-miterlimit:10;stroke-dasharray:5;" x1="79.068" y1="69.938" x2="83.533" y2="69.938"/>
	
		<line style="fill:none;stroke:#010101;stroke-miterlimit:10;stroke-dasharray:5;" x1="85.497" y1="69.928" x2="89.962" y2="69.928"/>
	
		<line style="fill:none;stroke:#010101;stroke-miterlimit:10;stroke-dasharray:5;" x1="91.926" y1="69.917" x2="96.391" y2="69.917"/>
	
		<line style="fill:none;stroke:#010101;stroke-miterlimit:10;stroke-dasharray:5;" x1="98.354" y1="69.907" x2="102.82" y2="69.907"/>
	
		<line style="fill:none;stroke:#010101;stroke-miterlimit:10;stroke-dasharray:5;" x1="104.783" y1="69.896" x2="109.249" y2="69.896"/>
	
		<line style="fill:none;stroke:#010101;stroke-miterlimit:10;stroke-dasharray:5;" x1="111.212" y1="69.886" x2="115.678" y2="69.886"/>
	
		<line style="fill:none;stroke:#010101;stroke-miterlimit:10;stroke-dasharray:5;" x1="117.641" y1="69.875" x2="122.107" y2="69.875"/>
	
		<line style="fill:none;stroke:#010101;stroke-miterlimit:10;stroke-dasharray:5;" x1="124.07" y1="69.865" x2="128.536" y2="69.865"/>
	
		<line style="fill:none;stroke:#010101;stroke-miterlimit:10;stroke-dasharray:5;" x1="130.499" y1="69.854" x2="134.965" y2="69.854"/>
	
		<line style="fill:none;stroke:#010101;stroke-miterlimit:10;stroke-dasharray:5;" x1="136.928" y1="69.844" x2="141.394" y2="69.844"/>
	
		<line style="fill:none;stroke:#010101;stroke-miterlimit:10;stroke-dasharray:5;" x1="150.248" y1="70.001" x2="154.713" y2="70.001"/>
	
		<line style="fill:none;stroke:#010101;stroke-miterlimit:10;stroke-dasharray:5;" x1="156.677" y1="69.991" x2="161.142" y2="69.991"/>
	
		<line style="fill:none;stroke:#010101;stroke-miterlimit:10;stroke-dasharray:5;" x1="163.106" y1="69.98" x2="167.571" y2="69.98"/>
	<line style="fill:none;stroke:#010101;stroke-miterlimit:10;stroke-dasharray:5;" x1="169.535" y1="69.97" x2="174" y2="69.97"/>
	
		<line style="fill:none;stroke:#010101;stroke-miterlimit:10;stroke-dasharray:5;" x1="175.964" y1="69.959" x2="180.429" y2="69.959"/>
	
		<line style="fill:none;stroke:#010101;stroke-miterlimit:10;stroke-dasharray:5;" x1="182.392" y1="69.949" x2="186.858" y2="69.949"/>
	
		<line style="fill:none;stroke:#010101;stroke-miterlimit:10;stroke-dasharray:5;" x1="188.821" y1="69.938" x2="193.287" y2="69.938"/>
	
		<line style="fill:none;stroke:#010101;stroke-miterlimit:10;stroke-dasharray:5;" x1="195.25" y1="69.928" x2="199.716" y2="69.928"/>
	
		<line style="fill:none;stroke:#010101;stroke-miterlimit:10;stroke-dasharray:5;" x1="201.679" y1="69.917" x2="206.145" y2="69.917"/>
	
		<line style="fill:none;stroke:#010101;stroke-miterlimit:10;stroke-dasharray:5;" x1="208.108" y1="69.907" x2="212.574" y2="69.907"/>
	
		<line style="fill:none;stroke:#010101;stroke-miterlimit:10;stroke-dasharray:5;" x1="214.537" y1="69.896" x2="219.003" y2="69.896"/>
	
		<line style="fill:none;stroke:#010101;stroke-miterlimit:10;stroke-dasharray:5;" x1="150.248" y1="139.725" x2="154.713" y2="139.725"/>
	
		<line style="fill:none;stroke:#010101;stroke-miterlimit:10;stroke-dasharray:5;" x1="156.677" y1="139.715" x2="161.142" y2="139.715"/>
	
		<line style="fill:none;stroke:#010101;stroke-miterlimit:10;stroke-dasharray:5;" x1="163.106" y1="139.704" x2="167.571" y2="139.704"/>
	
		<line style="fill:none;stroke:#010101;stroke-miterlimit:10;stroke-dasharray:5;" x1="169.535" y1="139.694" x2="174" y2="139.694"/>
	
		<line style="fill:none;stroke:#010101;stroke-miterlimit:10;stroke-dasharray:5;" x1="175.964" y1="139.684" x2="180.429" y2="139.684"/>
	
		<line style="fill:none;stroke:#010101;stroke-miterlimit:10;stroke-dasharray:5;" x1="182.392" y1="139.673" x2="186.858" y2="139.673"/>
	
		<line style="fill:none;stroke:#010101;stroke-miterlimit:10;stroke-dasharray:5;" x1="188.821" y1="139.663" x2="193.287" y2="139.663"/>
	
		<line style="fill:none;stroke:#010101;stroke-miterlimit:10;stroke-dasharray:5;" x1="195.25" y1="139.652" x2="199.716" y2="139.652"/>
	
		<line style="fill:none;stroke:#010101;stroke-miterlimit:10;stroke-dasharray:5;" x1="201.679" y1="139.642" x2="206.145" y2="139.642"/>
	
		<line style="fill:none;stroke:#010101;stroke-miterlimit:10;stroke-dasharray:5;" x1="208.108" y1="139.631" x2="212.574" y2="139.631"/>
	
		<line style="fill:none;stroke:#010101;stroke-miterlimit:10;stroke-dasharray:5;" x1="214.537" y1="139.621" x2="219.003" y2="139.621"/>
	
		<line style="fill:none;stroke:#010101;stroke-miterlimit:10;stroke-dasharray:5;" x1="150.248" y1="208.69" x2="154.713" y2="208.69"/>
	
		<line style="fill:none;stroke:#010101;stroke-miterlimit:10;stroke-dasharray:5;" x1="59.319" y1="208.617" x2="63.785" y2="208.617"/>
	
		<line style="fill:none;stroke:#010101;stroke-miterlimit:10;stroke-dasharray:5;" x1="156.677" y1="208.68" x2="161.142" y2="208.68"/>
	
		<line style="fill:none;stroke:#010101;stroke-miterlimit:10;stroke-dasharray:5;" x1="163.106" y1="208.669" x2="167.571" y2="208.669"/>
	
		<line style="fill:none;stroke:#010101;stroke-miterlimit:10;stroke-dasharray:5;" x1="169.535" y1="208.659" x2="174" y2="208.659"/>
	
		<line style="fill:none;stroke:#010101;stroke-miterlimit:10;stroke-dasharray:5;" x1="175.964" y1="208.648" x2="180.429" y2="208.648"/>
	
		<line style="fill:none;stroke:#010101;stroke-miterlimit:10;stroke-dasharray:5;" x1="182.392" y1="208.638" x2="186.858" y2="208.638"/>
	
		<line style="fill:none;stroke:#010101;stroke-miterlimit:10;stroke-dasharray:5;" x1="188.821" y1="208.627" x2="193.287" y2="208.627"/>
	
		<line style="fill:none;stroke:#010101;stroke-miterlimit:10;stroke-dasharray:5;" x1="98.354" y1="208.722" x2="102.82" y2="208.722"/>
	
		<line style="fill:none;stroke:#010101;stroke-miterlimit:10;stroke-dasharray:5;" x1="104.783" y1="208.711" x2="109.249" y2="208.711"/>
	
		<line style="fill:none;stroke:#010101;stroke-miterlimit:10;stroke-dasharray:5;" x1="111.212" y1="208.701" x2="115.678" y2="208.701"/>
	
		<line style="fill:none;stroke:#010101;stroke-miterlimit:10;stroke-dasharray:5;" x1="117.641" y1="208.69" x2="122.107" y2="208.69"/>
	
		<line style="fill:none;stroke:#010101;stroke-miterlimit:10;stroke-dasharray:5;" x1="124.07" y1="208.68" x2="128.536" y2="208.68"/>
	
		<line style="fill:none;stroke:#010101;stroke-miterlimit:10;stroke-dasharray:5;" x1="130.499" y1="208.669" x2="134.965" y2="208.669"/>
	
		<line style="fill:none;stroke:#010101;stroke-miterlimit:10;stroke-dasharray:5;" x1="136.928" y1="208.659" x2="141.394" y2="208.659"/>
	
		<line style="fill:none;stroke:#010101;stroke-miterlimit:10;stroke-dasharray:5;" x1="195.25" y1="208.617" x2="199.716" y2="208.617"/>
	
		<line style="fill:none;stroke:#010101;stroke-miterlimit:10;stroke-dasharray:5;" x1="201.679" y1="208.606" x2="206.145" y2="208.606"/>
	
		<line style="fill:none;stroke:#010101;stroke-miterlimit:10;stroke-dasharray:5;" x1="208.108" y1="208.596" x2="212.574" y2="208.596"/>
	
		<line style="fill:none;stroke:#010101;stroke-miterlimit:10;stroke-dasharray:5;" x1="214.537" y1="208.586" x2="219.003" y2="208.586"/>
	
		<line style="fill:none;stroke:#010101;stroke-miterlimit:10;stroke-dasharray:5;" x1="74.872" y1="139.673" x2="79.337" y2="139.673"/>
	
		<line style="fill:none;stroke:#010101;stroke-miterlimit:10;stroke-dasharray:5;" x1="81.301" y1="139.663" x2="85.766" y2="139.663"/>
	
		<line style="fill:none;stroke:#010101;stroke-miterlimit:10;stroke-dasharray:5;" x1="87.729" y1="139.652" x2="92.195" y2="139.652"/>
	
		<line style="fill:none;stroke:#010101;stroke-miterlimit:10;stroke-dasharray:5;" x1="94.158" y1="139.642" x2="98.624" y2="139.642"/>
	
		<line style="fill:none;stroke:#010101;stroke-miterlimit:10;stroke-dasharray:5;" x1="100.587" y1="139.631" x2="105.053" y2="139.631"/>
	
		<line style="fill:none;stroke:#010101;stroke-miterlimit:10;stroke-dasharray:5;" x1="107.016" y1="139.621" x2="111.482" y2="139.621"/>
	
		<line style="fill:none;stroke:#010101;stroke-miterlimit:10;stroke-dasharray:5;" x1="113.445" y1="139.61" x2="117.911" y2="139.61"/>
	
		<line style="fill:none;stroke:#010101;stroke-miterlimit:10;stroke-dasharray:5;" x1="119.874" y1="139.6" x2="124.34" y2="139.6"/>
	
		<line style="fill:none;stroke:#010101;stroke-miterlimit:10;stroke-dasharray:5;" x1="126.303" y1="139.589" x2="130.769" y2="139.589"/>
	
		<line style="fill:none;stroke:#010101;stroke-miterlimit:10;stroke-dasharray:5;" x1="132.732" y1="139.579" x2="137.198" y2="139.579"/>
	
		<line style="fill:none;stroke:#010101;stroke-miterlimit:10;stroke-dasharray:5;" x1="139.161" y1="139.568" x2="143.626" y2="139.568"/>
	<g>
		<path style="fill:#FFFFFF;" d="M200.456,26.588c0.816,0,1.65,0.125,2.482,0.391l15.839,5.063c4.271,1.365,7.314,4.918,8.17,9.099
			c0.402,1.964,0.178,3.996-0.404,5.914c-3.07,10.118-5.029,22.689-5.998,37.445c-0.111,1.69-0.156,3.388-0.156,5.081v44.459
			c0,2.019,0.778,3.96,2.173,5.42l9.994,10.456c1.481,1.549,2.307,3.61,2.307,5.753l0,56.041c0,3.165-1.51,6.158-4.105,7.972
			c-5.393,3.77-15.161,6.48-24.425,6.841c-2.059,0.08-4.039,0.778-5.662,2.048c-5.679,4.444-13.313,11.686-53.581,11.686
			s-47.902-7.242-53.581-11.686c-1.623-1.27-3.603-1.967-5.662-2.048c-9.264-0.36-19.031-3.07-24.425-6.841
			c-2.594-1.814-4.105-4.806-4.105-7.972l0-56.041c0-2.143,0.826-4.204,2.307-5.753l9.994-10.456c1.395-1.46,2.174-3.401,2.174-5.42
			V89.582c0-1.693-0.045-3.391-0.156-5.081c-0.969-14.756-2.928-27.327-5.998-37.445c-0.582-1.918-0.806-3.951-0.404-5.914
			c0.856-4.181,3.898-7.734,8.17-9.099l15.839-5.063c0.832-0.266,1.666-0.391,2.482-0.391c4.313,0,8.093,3.494,8.093,8.112v7.377
			c-0.308,13.397,19.094,15.36,45.272,16.631c26.178-1.27,45.58-3.234,45.272-16.631l0-7.377
			C192.363,30.083,196.143,26.589,200.456,26.588 M200.457,22.588L200.457,22.588c-6.669,0.001-12.093,5.434-12.093,12.112l0,7.377
			v0.046l0.001,0.046c0.069,3-1.043,6.406-9.81,8.926c-7.989,2.297-19.91,3.045-31.463,3.607
			c-11.552-0.562-23.473-1.31-31.463-3.607c-8.767-2.521-9.879-5.927-9.81-8.926l0.001-0.046v-0.046V34.7
			c0-6.679-5.425-12.112-12.093-12.112c-1.249,0-2.494,0.195-3.7,0.581l-15.839,5.063c-5.539,1.771-9.704,6.41-10.87,12.107
			c-0.507,2.476-0.34,5.126,0.495,7.878c2.908,9.585,4.871,21.881,5.834,36.546c0.099,1.509,0.147,3.085,0.147,4.819v44.459
			c0,0.994-0.378,1.937-1.065,2.656l-9.994,10.456c-2.203,2.304-3.416,5.329-3.416,8.517l0,56.041c0,4.5,2.173,8.706,5.813,11.25
			c6.005,4.198,16.431,7.165,26.561,7.559c1.251,0.049,2.411,0.464,3.352,1.201l0.616,0.485c6.07,4.799,15.243,12.051,55.43,12.051
			s49.36-7.252,55.43-12.051l0.616-0.485c0.942-0.737,2.101-1.152,3.352-1.201c10.13-0.394,20.556-3.361,26.561-7.559
			c3.64-2.544,5.813-6.75,5.813-11.25l0-56.041c0-3.188-1.213-6.213-3.416-8.517l-9.994-10.456
			c-0.687-0.719-1.065-1.662-1.065-2.656V89.582c0-1.734,0.048-3.31,0.147-4.819c0.963-14.665,2.926-26.961,5.834-36.546
			c0.835-2.752,1.001-5.402,0.495-7.878c-1.166-5.697-5.331-10.336-10.87-12.107l-15.839-5.063
			C202.95,22.784,201.706,22.588,200.457,22.588L200.457,22.588z"/>
	</g>
	<path style="fill:none;stroke:#010101;stroke-width:2;stroke-miterlimit:10;" d="M147.091,58.708
		c26.178-1.27,45.58-3.234,45.272-16.631V34.7c0-5.491,5.344-9.393,10.574-7.721l15.839,5.063c4.271,1.365,7.314,4.918,8.17,9.099
		c0.402,1.964,0.178,3.996-0.404,5.914c-3.07,10.118-5.029,22.689-5.998,37.445c-0.111,1.69-0.156,3.388-0.156,5.081v44.459
		c0,2.019,0.779,3.96,2.174,5.42l9.994,10.456c1.481,1.549,2.307,3.61,2.307,5.753v56.041c0,3.165-1.51,6.158-4.105,7.972
		c-5.393,3.77-15.161,6.48-24.425,6.841c-2.059,0.08-4.039,0.778-5.662,2.048c-5.679,4.444-13.313,11.686-53.581,11.686
		s-47.902-7.242-53.581-11.686c-1.623-1.27-3.603-1.967-5.662-2.048c-9.264-0.36-19.031-3.07-24.425-6.841
		c-2.594-1.814-4.105-4.806-4.105-7.972l0-56.041c0-2.143,0.826-4.204,2.307-5.753l9.994-10.456c1.395-1.46,2.174-3.401,2.174-5.42
		l0-44.459c0-1.693-0.045-3.391-0.156-5.081c-0.969-14.756-2.928-27.327-5.998-37.445c-0.582-1.918-0.806-3.951-0.404-5.914
		c0.856-4.181,3.898-7.734,8.17-9.099l15.839-5.063c5.23-1.672,10.574,2.23,10.574,7.721l0,7.377
		C101.511,55.474,120.913,57.437,147.091,58.708L147.091,58.708z"/>
	
		<rect x="72.492" y="33.82" transform="matrix(0.9383 -0.3458 0.3458 0.9383 -7.9292 31.4827)" style="fill:none;stroke:#010101;stroke-miterlimit:10;" width="23.545" height="8.285"/>
	
		<rect x="198.569" y="34.384" transform="matrix(-0.9383 -0.3458 0.3458 -0.9383 394.3806 147.4169)" style="fill:none;stroke:#010101;stroke-miterlimit:10;" width="23.545" height="8.285"/>
	
		<line style="fill:none;stroke:#010101;stroke-width:2;stroke-miterlimit:10;" x1="147.091" y1="58.708" x2="147.091" y2="240.257"/>
	<circle style="fill:none;stroke:#010101;stroke-miterlimit:10;" cx="163.106" cy="148.588" r="2.82"/>
	<circle style="fill:none;stroke:#010101;stroke-miterlimit:10;" cx="189.94" cy="191.088" r="2.82"/>
	<circle style="fill:none;stroke:#010101;stroke-miterlimit:10;" cx="189.25" cy="148.588" r="2.82"/>
	<circle style="fill:none;stroke:#010101;stroke-miterlimit:10;" cx="215.031" cy="148.588" r="2.82"/>
	<path style="fill:none;stroke:#010101;stroke-miterlimit:10;" d="M192.881,200.529h-6.617c-4.073,0-7.374-3.301-7.374-7.374
		v-35.704h21.366v35.704C200.255,197.228,196.953,200.529,192.881,200.529z"/>
	<circle style="fill:none;stroke:#010101;stroke-miterlimit:10;" cx="215.399" cy="191.088" r="2.82"/>
	<path style="fill:none;stroke:#010101;stroke-miterlimit:10;" d="M218.34,200.529h-6.617c-4.073,0-7.374-3.301-7.374-7.374v-35.704
		h21.366v35.704C225.714,197.228,222.413,200.529,218.34,200.529z"/>
	<polygon style="fill:none;stroke:#010101;stroke-miterlimit:10;" points="253.727,81.806 268.971,81.806 263.428,98.898 
		275.67,98.898 245.642,138.627 255.343,109.061 245.642,108.83 	"/>
	<polygon style="fill:none;stroke:#010101;stroke-miterlimit:10;" points="40.113,81.498 24.868,81.498 30.412,98.59 18.17,98.59 
		48.197,138.319 38.496,108.753 48.197,108.522 	"/>
	<rect x="68.366" y="208.151" style="fill:none;stroke:#010101;stroke-miterlimit:10;" width="29.989" height="4.504"/>
	<rect x="66.633" y="177.893" style="fill:none;stroke:#010101;stroke-miterlimit:10;" width="33.377" height="19.633"/>
	<line style="fill:none;stroke:#010101;stroke-miterlimit:10;" x1="70.444" y1="208.151" x2="70.444" y2="197.526"/>
	<line style="fill:none;stroke:#010101;stroke-miterlimit:10;" x1="96.314" y1="197.526" x2="96.314" y2="208.151"/>
	<line style="fill:none;stroke:#010101;stroke-miterlimit:10;" x1="96.314" y1="164.727" x2="96.314" y2="177.893"/>
	<line style="fill:none;stroke:#010101;stroke-miterlimit:10;" x1="70.444" y1="177.893" x2="70.444" y2="164.727"/>
	<rect x="68.366" y="160.57" style="fill:none;stroke:#010101;stroke-miterlimit:10;" width="29.103" height="4.158"/>
	<rect x="106.131" y="177.277" style="fill:none;stroke:#010101;stroke-miterlimit:10;" width="13.743" height="20.249"/>
	<rect x="123.627" y="177.277" style="fill:none;stroke:#010101;stroke-miterlimit:10;" width="13.743" height="20.249"/>
	<path style="fill:none;stroke:#010101;stroke-miterlimit:10;" d="M77.104,156.258h7.042c1.024,0,1.991,0.467,2.628,1.268
		l2.418,3.043"/>
	<line style="fill:none;stroke:#010101;stroke-miterlimit:10;" x1="79.876" y1="152.331" x2="79.876" y2="160.57"/>
	<path style="fill:none;stroke:#010101;stroke-miterlimit:10;" d="M75.872,160.57c0,0-2.849-1.771-2.849-4.312
		s1.617-3.927,2.849-3.927c1.232,0,15.553,0,15.553,0l3.542,4.851l4.907,0.062c0.686,0.009,1.273,0.494,1.411,1.167l1.228,6.009
		c0,0,0.616,2.079-1.925,2.233s-3.118-1.925-3.118-1.925"/>
</g>
</svg>
