<?xml version="1.0" encoding="iso-8859-1"?>
<!-- Generator: Adobe Illustrator 23.0.0, SVG Export Plug-In . SVG Version: 6.00 Build 0)  -->
<svg version="1.1" id="Layer_1" xmlns="http://www.w3.org/2000/svg" xmlns:xlink="http://www.w3.org/1999/xlink" x="0px" y="0px"
	 viewBox="0 0 288 288" style="enable-background:new 0 0 288 288;" xml:space="preserve">
<circle style="fill:none;stroke:#010101;stroke-width:6;stroke-linecap:round;stroke-linejoin:round;stroke-miterlimit:10;" cx="207.506" cy="137.071" r="9.107"/>
<polyline style="fill:none;stroke:#010101;stroke-width:6;stroke-linecap:round;stroke-linejoin:round;stroke-miterlimit:10;" points="
	229.956,131.873 264.844,126.611 252.038,137.155 266.04,149.979 229.222,144.556 "/>
<circle style="fill:none;stroke:#010101;stroke-width:6;stroke-linecap:round;stroke-linejoin:round;stroke-miterlimit:10;" cx="80.134" cy="137.482" r="9.107"/>
<polyline style="fill:none;stroke:#010101;stroke-width:6;stroke-linecap:round;stroke-linejoin:round;stroke-miterlimit:10;" points="
	59.03,131.054 24.504,123.786 36.679,135.052 21.96,147.045 59.03,143.759 "/>
<path style="fill:#E32142;" d="M91.012,115.427c1.319-3.477,6.428-9.691,12.38-16.514c4.89-5.605,13.789-4.967,17.849,1.266
	c4.418,7.788,9.386,17.429,11.476,20.79c4.146,8.632,17.081,9.904,22.624,0.454c4.337-9.026,8.433-17.901,13.629-23.261
	c4.086-3.793,8.368-4.676,13.629-0.846c3.941,2.843,9.813,9.328,13.932,17.202c1.195,2.284,1.449,5.077-0.425,6.846
	c-9.985,9.426-10.582,17.779-5.603,28.027c2.195,4.518,1.321,9.938-2.079,13.636c-7.088,7.712-14.245,14.688-21.626,21.19
	c-12.125,10.681-30.14,11.334-42.913,1.437c-9.475-7.341-18.018-15.926-25.535-25.344c-1.884-2.361-2.362-5.55-1.275-8.369
	c4.697-12.187,5.603-22.816-4.841-29.877C89.805,120.71,89.949,117.335,91.012,115.427z"/>
<path style="fill:none;stroke:#E32142;stroke-width:6;stroke-linecap:round;stroke-linejoin:round;stroke-miterlimit:10;" d="
	M82.653,159.584c37.433,62.147,88.314,62.147,122.84,0"/>
<path style="fill:none;stroke:#E32142;stroke-width:6;stroke-linecap:round;stroke-linejoin:round;stroke-miterlimit:10;" d="
	M76.111,114.518c24.978-44.465,47.864-42.759,68.89,0c19.993-43.699,42.468-43.525,67.397,0"/>
</svg>
