<?xml version="1.0" encoding="iso-8859-1"?>
<!-- Generator: Adobe Illustrator 22.0.1, SVG Export Plug-In . SVG Version: 6.00 Build 0)  -->
<svg version="1.1" id="Layer_1" xmlns="http://www.w3.org/2000/svg" xmlns:xlink="http://www.w3.org/1999/xlink" x="0px" y="0px"
	 viewBox="0 0 288 288" style="enable-background:new 0 0 288 288;" xml:space="preserve">
<path id="coral" style="fill:#FFFFFF;" d="M240.319,92.368c-14.911-3.367-25.012,5.05-25.012,5.05
	c-22.847,13.708-42.809,82.01-42.809,82.01c-6.734,17.797-13.468,34.872-25.733,36.315c-20.442,1.443-34.151-58.2-34.151-58.2
	s34.872-5.05,51.226-34.151c13.949-32.948-12.265-50.985-12.265-50.985c-17.316-12.506-55.555-17.075-75.757,9.379
	c-14.43,19.24-12.265,49.302-46.416,62.77L51.529,144c12.631,4.133,31.024-12.431,38.239-41.531
	c7.215-29.1,25.252-31.265,29.581-31.265s27.657,1.683,23.328,33.67s-32.828,41.486-32.828,41.486
	c-2.525-8.898-13.227-14.911-23.448-13.468c-10.221,1.443-22.486,12.025-18.879,22.847c3.607,10.822,18.879,9.019,18.879,9.019
	c15.632,42.328,32.708,52.428,44.973,58.2c12.265,5.772,37.999,2.645,50.985-16.113c12.987-18.759,25.974-49.061,37.758-78.883
	c11.784-29.822,38.48-36.556,38.48-36.556L240.319,92.368z M73.685,146.239c4.96,0.721,7.936,3.367,8.928,7.936
	C75.753,154.542,73.128,151.625,73.685,146.239z"/>
</svg>
