<?xml version="1.0" encoding="iso-8859-1"?>
<!-- Generator: Adobe Illustrator 23.0.0, SVG Export Plug-In . SVG Version: 6.00 Build 0)  -->
<svg version="1.1" id="Layer_1" xmlns="http://www.w3.org/2000/svg" xmlns:xlink="http://www.w3.org/1999/xlink" x="0px" y="0px"
	 viewBox="0 0 288 288" style="enable-background:new 0 0 288 288;" xml:space="preserve">
<g>
	<path style="fill:#FFFFFF;" d="M52.122,120.697v8.347h37.302c1.425,0,2.58,1.155,2.58,2.58v6.434c0,1.425-1.155,2.58-2.58,2.58
		H61.454c-5.154,0-9.333,4.178-9.333,9.333v6.029c0,6.243,5.061,11.304,11.304,11.304h37.389v-8.347H63.512
		c-1.425,0-2.58-1.155-2.58-2.58v-5.391c0-1.425,1.155-2.58,2.58-2.58h27.216c5.571,0,10.086-4.516,10.086-10.086v-6.376
		c0-6.211-5.035-11.246-11.246-11.246H52.122z"/>
	<path style="fill:#FFFFFF;" d="M106.495,167.303h9.053l-0.01-34.61c0-1.425,1.253-2.58,2.798-2.58h5.65
		c1.545,0,2.798,1.155,2.798,2.58l0.116,26.06c0,5.154,5.841,8.55,11.431,8.55h6.538c6.771,0,12.173-4.017,12.173-10.26v-35.534
		h-9.053v35.447c0,1.425-1.253,2.58-2.798,2.58h-5.847c-1.545,0-3.75-1.024-3.75-2.449v-26.172c0-5.571-3.813-9.173-9.854-9.173
		h-6.916c-6.736,0-12.33,3.991-12.33,10.202V167.303z"/>
	<path style="fill:#FFFFFF;" d="M172.72,121.509h39.508v8.605h-48.113v0C164.115,125.361,167.967,121.509,172.72,121.509z"/>
	<path style="fill:#FFFFFF;" d="M172.72,167.303h39.508v-8.605h-48.113v0C164.115,163.45,167.967,167.303,172.72,167.303z"/>
	<rect x="164.115" y="138.899" style="fill:#FFFFFF;" width="48.113" height="8.463"/>
	<path style="fill:#FFFFFF;" d="M221.039,121.509v8h2.802c2.038,0,3.691,1.652,3.691,3.691v34.104h8.347v-36.461
		c0-5.154-4.178-9.333-9.333-9.333H221.039z"/>
</g>
</svg>
