<?xml version="1.0" encoding="iso-8859-1"?>
<!-- Generator: Adobe Illustrator 23.0.0, SVG Export Plug-In . SVG Version: 6.00 Build 0)  -->
<svg version="1.1" id="Layer_1" xmlns="http://www.w3.org/2000/svg" xmlns:xlink="http://www.w3.org/1999/xlink" x="0px" y="0px"
	 viewBox="0 0 288 288" style="enable-background:new 0 0 288 288;" xml:space="preserve">
<g>
	<linearGradient id="SVGID_1_" gradientUnits="userSpaceOnUse" x1="144" y1="20.88" x2="144" y2="267.12">
		<stop  offset="0" style="stop-color:#21314E"/>
		<stop  offset="0.385" style="stop-color:#395E72"/>
		<stop  offset="1" style="stop-color:#69C8C7"/>
	</linearGradient>
	<path style="fill:url(#SVGID_1_);" d="M229.818,106.676c0,47.396-38.422,85.818-85.818,85.818
		c-47.396,0-85.818-38.422-85.818-85.818c0-46.819,37.493-84.876,84.091-85.796l-7.12,16.418
		c-34.455,4.352-61.108,33.743-61.108,69.379c0,38.635,31.32,69.955,69.955,69.955c38.635,0,69.955-31.32,69.955-69.955
		c0-34.728-25.311-63.53-58.488-69.004l6.385-14.949C200.679,30.939,229.818,65.402,229.818,106.676z M148.207,54.671l-6.739,15.777
		c0,0-8.937,18.384-12.837,28.33c-0.751,1.458-1.302,3.034-1.613,4.697c-0.11,0.449-0.171,0.811-0.172,1.067
		c0,0.014,0.004,0.02,0.004,0.034c-0.084,0.69-0.14,1.388-0.14,2.1c0,9.549,7.741,17.291,17.291,17.291
		c9.549,0,17.29-7.741,17.29-17.291c0-9.549-7.741-17.29-17.29-17.29c-0.868,0-1.715,0.085-2.549,0.208
		c0.005-0.006,0.017-0.022,0.017-0.022l8.466-18.731c17.238,2.834,30.391,17.795,30.391,35.835
		c0,20.062-16.264,36.326-36.326,36.326c-20.062,0-36.326-16.264-36.326-36.326c0-2.811,0.33-5.543,0.934-8.17l0,0
		c1.011-4.395,2.809-8.49,5.254-12.116l12.508-28.843c-20.147,7.231-34.56,26.494-34.56,49.129
		c0,28.823,23.366,52.189,52.189,52.189c28.823,0,52.189-23.366,52.189-52.189C196.189,79.271,175.061,56.815,148.207,54.671z
		 M100.694,248.164v0.793c0,9.243-7.493,16.735-16.735,16.735H70.872v-34.264h13.087
		C93.202,231.429,100.694,238.921,100.694,248.164z M91.732,247.529c0-4.95-4.013-8.963-8.963-8.963h-3.411v19.749h3.411
		c4.95,0,8.963-4.013,8.963-8.963V247.529z M143.762,265.692h-9.518l-2.697-6.028H119.73l-2.776,6.028h-9.121l13.404-34.264h9.756
		L143.762,265.692z M129.486,252.923l-3.331-9.994l-3.331,9.994H129.486z M180.485,231.429h-9.756l-6.336,9.121l-6.83-9.121h-9.756
		l12.25,18.673v15.591h8.672v-15.179L180.485,231.429z M216.89,254.668c0,6.877-4.124,12.452-14.277,12.452
		c-10.152,0-14.673-5.575-14.673-12.452c0-1.583,0.2-3.091,0.627-4.484l-0.012,0.007c1.359-5.062,6.756-11.912,12.154-18.762h9.28
		l-7.974,10.806c0.203-0.004,0.39-0.019,0.598-0.019C213.717,242.215,216.89,247.79,216.89,254.668z M208.165,254.668
		c0-3.176-2.575-5.75-5.75-5.75c-3.176,0-5.75,2.575-5.75,5.75s2.575,5.75,5.75,5.75
		C205.591,260.418,208.165,257.843,208.165,254.668z"/>
</g>
</svg>
