<?xml version="1.0" encoding="iso-8859-1"?>
<!-- Generator: Adobe Illustrator 22.0.1, SVG Export Plug-In . SVG Version: 6.00 Build 0)  -->
<svg version="1.1" id="Layer_1" xmlns="http://www.w3.org/2000/svg" xmlns:xlink="http://www.w3.org/1999/xlink" x="0px" y="0px"
	 viewBox="0 0 288 288" style="enable-background:new 0 0 288 288;" xml:space="preserve">
<g>
	<path style="fill:#FAC597;" d="M233.905,112.797c-7.615-3.191-10.226,2.683-10.226,2.683c1.793,0.398,3.481,0.87,3.989,3.264
		c0.58,5.077-3.264,5.512-6.817,2.466c-4.569-4.061-3.554-8.268-11.749-10.081c-8.196-1.813-14.288,4.787-16.101,8.341
		c-1.813,3.554,0.798,5.875,0.798,5.875s10.154,10.081,10.371,25.094s-6.527,35.248-18.494,41.775
		c-11.967,6.527-18.059-1.305-18.059-1.305c13.272-15.666,15.666-24.369,17.406-31.331s-1.305-25.022-17.406-24.586
		c-16.101,0.435-22.193,13.925-23.281,28.068c-1.088,14.143,8.05,29.156,8.05,29.156c-2.829,3.046-6.745,6.527-15.448,2.611
		c-8.703-3.916-9.791-17.189-7.833-33.942s25.674-65.926,25.674-65.926c71.801,5.657,61.792-56.135,61.792-56.135
		c-12.62,20.452-60.487,23.499-90.513,27.415s-67.449,32.202-75.282,65.274s16.101,37.424,16.101,37.424l21.323-17.95
		c-9.247-0.979-14.36-5.983-16.101-8.159c0,0-12.837-12.837,0-33.507s49.173-16.101,49.173-16.101s-14.795,48.738-16.536,69.19
		s1.523,35.248,18.494,44.604c16.971,9.356,35.465-7.18,35.465-7.18c6.963,10.011,21.975,15.666,39.599,3.481
		c28.938-23.716,26.907-65.999,26.907-65.999s2.538,0.073,8.34-4.497C239.344,128.245,241.52,115.988,233.905,112.797z
		 M161.306,178.071c0,0-2.611-8.993-2.611-15.376s4.497-10.009,7.398-9.283c2.901,0.725,3.897,4.207,3.336,9.428
		C168.92,167.584,166.238,173.574,161.306,178.071z"/>
	<path style="fill:#FAC597;" d="M158.423,225.503l-6.038,23.063h-5.439l-3.17-14.253l-3.56,14.253h-5.564l-6.255-23.063h6.038
		l3.264,13.218l3.318-13.218h4.95l3.808,13.327l3.046-13.327H158.423z M125.84,225.503h-4.46h-5.766h-4.46v4.896h4.46v18.168h5.766
		v-18.168h4.46V225.503z M167.833,225.503h-5.802v23.063h5.802V225.503z M184.478,243.181c-3.395,0-6.147-2.752-6.147-6.147
		c0-3.395,2.752-6.147,6.147-6.147c2.24,0,4.194,1.202,5.268,2.992h6.448c-1.391-5.175-6.102-8.99-11.716-8.99
		c-6.707,0-12.145,5.437-12.145,12.145c0,6.707,5.437,12.145,12.145,12.145c5.693,0,10.457-3.922,11.772-9.207h-6.372
		C188.836,241.884,186.809,243.181,184.478,243.181z M214.558,230.888v-5.385h-7.126h-4.406h-1.577v23.063h1.577h4.406h7.126v-5.385
		h-7.126v-3.699h7.126v-5.385h-7.126v-3.209H214.558z"/>
</g>
</svg>
