<?xml version="1.0" encoding="iso-8859-1"?>
<!-- Generator: Adobe Illustrator 22.0.1, SVG Export Plug-In . SVG Version: 6.00 Build 0)  -->
<svg version="1.1" id="Layer_1" xmlns="http://www.w3.org/2000/svg" xmlns:xlink="http://www.w3.org/1999/xlink" x="0px" y="0px"
	 viewBox="0 0 288 288" style="enable-background:new 0 0 288 288;" xml:space="preserve">
<g>
	<polygon style="fill:#FFFFFF;" points="142.654,72.414 149.821,91.036 168.204,90.976 154.122,103.489 158.653,121.854 
		143.102,111.372 127.245,121.854 132.173,103.399 117.105,90.976 136.272,91.173 	"/>
	<path style="fill:#FFFFFF;" d="M228.469,81.988L144,41.309L59.531,81.988l-20.862,91.403l58.455,73.3h93.754l58.455-73.3
		L228.469,81.988z M179.171,221.047h-39.128l44.718-57.445V127.05h-67.656L100.548,144v29.098h18.634v-23.472l5.053-5.053h43.145
		v13.116l-51.146,63.357h-7.405l-43.857-54.074l15.652-67.429L144,69.535l63.375,30.009l15.652,67.429L179.171,221.047z"/>
</g>
</svg>
