<?xml version="1.0" encoding="iso-8859-1"?>
<!-- Generator: Adobe Illustrator 23.0.0, SVG Export Plug-In . SVG Version: 6.00 Build 0)  -->
<svg version="1.1" id="Layer_1" xmlns="http://www.w3.org/2000/svg" xmlns:xlink="http://www.w3.org/1999/xlink" x="0px" y="0px"
	 viewBox="0 0 288 288" style="enable-background:new 0 0 288 288;" xml:space="preserve">
<g>
	<path style="fill:#010101;" d="M94.966,114.694c-4.567-2.986-15.459,3.425-21.87,5.094c-5.094,1.581-31.668,12.31-37.504,11.33
		c7.202-11.769,38.383-38.119,52.699-37.329c0,0-0.263,7.114,2.196,7.729c2.459,0.615,6.262-4.039,6.236-7.378
		c0.021-0.747,0.703-8.928-6.019-8.821c-7.376,1.092-21.672,12.436-30.366,18.878c-11.967,8.867-24.47,18.652-27.371,24.538
		c0.616-0.915-3.083,4.543-0.494,8.135c2.55,3.539,6.324-0.198,7.378-0.593c12.121-3.36,39.261-16.995,49.669-18.445
		c0,0,0.527,4.677-9.618,14.953c-10.145,10.276-33.991,41.105-41.369,53.49c-3.84,5.635-4.467,5.438-7.997,9.438
		c-0.486,0.551-0.773,1.272-0.718,2.005c0.026,0.353,0.135,0.645,0.415,0.678c0.747,0.088,2.284,0.132,3.25-1.625
		c3.162-5.929,11.155-14.185,20.64-27.36c1.98-3.015,32.074-38.719,36.187-41.808C94.912,122.949,100.236,118.295,94.966,114.694z
		 M33.132,129.493c-0.148-0.34,1.133-2.233,6.236-7.554c5.101-5.318,9.969-9.203,10.891-9.091c0.362,0.406-5.011,4.994-9.222,9.178
		C37.123,125.917,33.661,129.811,33.132,129.493z M51.068,130.602c-0.192-0.031-0.257-0.27-0.108-0.395
		c1.009-0.847,5.967-2.696,10.8-4.6c5.303-2.09,10.487-4.175,10.883-3.383C67.518,124.399,53.372,130.969,51.068,130.602z
		 M80.913,133.841c-1.02,2.918-33.55,42.451-35.462,44.498c-0.316,0.267-0.645,0.001-0.637-0.143
		c5.306-10.021,36.099-44.706,36.099-44.706C81.024,133.49,81.05,133.58,80.913,133.841z"/>
	<path style="fill:#010101;" d="M64.306,165.12c-0.111-0.061-0.175-0.183-0.172-0.31c0.013-0.567,0.189-2.188,1.672-3.742
		c15.985-15.371,48.483-38.119,54.631-45.058c0,0,1.625-1.713,1.713-3.601c0.088-1.888,4.699-0.351,5.226,1.098
		s2.108,2.503-3.865,4.875c-9.925,5.27-40.403,28.37-53.226,43.213C68.073,165.036,66.091,166.097,64.306,165.12z"/>
	<path style="fill:#010101;" d="M102.87,96.118c-0.121-1.452,0.08-2.911,0.625-4.262c0.624-1.544,1.649-3.256,3.086-3.072
		c2.569,0.329,3.36,2.306,2.635,7.444c-0.725,5.138-2.174,51.184,6.522,75.689c0.874,3.181,2.635,4.128,0.615,6.104
		c0,0-1.274,0.615-3.206-2.284C109.689,149.152,103.747,106.614,102.87,96.118z"/>
	<path style="fill:#010101;" d="M122.128,123.696c-0.98,0.239-2.161,0.999-1.515,6.456c0.652,5.505,0.329,20.092,0.329,20.092
		c-0.066,3.689-3.952,6.522-0.369,10.145c0,0,2.806,1.647,4.124-2.371c0,0-0.461-11.264,1.12-15.283
		c1.581-4.018,6.192-19.828,11.264-24.637s-0.066-4.941-0.725-4.15c-7.18,10.013-10.672,26.679-12.384,28.458
		c-0.922-1.976,0.198-8.432,0.066-13.175C124.038,129.23,124.236,124.158,122.128,123.696z"/>
	<path style="fill:#010101;" d="M158.117,140.165c0,0-0.132-1.274-1.405-1.449c-2.723-0.216-7.993-5.293-5.006-25.954
		c1.329-0.043,3.074-0.791,3.36-2.371c0,0,0.725-1.844-1.844-3.491c0,0,0.856-3.162-3.03-2.767
		c-3.887,0.395-3.294,3.294-3.228,4.677c0,0-13.263,29.336-10.891,41.457c0,0,2.02,7.993,7.466,3.513
		c5.446-4.479,4.04-18.796,5.797-19.85c0,0,3.162,11.155,7.641,10.715C156.975,144.644,158.644,143.063,158.117,140.165z
		 M140.024,149.739c-1.919,0.002-1.844-4.128-1.844-4.128c-1.054-14.229,9.398-28.106,9.398-28.106
		C148.543,132.172,142.247,149.958,140.024,149.739z"/>
	<path style="fill:#010101;" d="M187.628,95.722c-2.624-0.108-2.064,2.185-3.601,4.04c-8.695,11.506-16.073,32.849-21.519,42.511
		c-0.439-5.885,3.162-24.769,3.162-24.769c0.79-8.081,5.006-13.407,1.318-15.195c-1.281-0.359-2.443,0.31-3.189,0.929
		c-0.55,0.456-0.906,1.095-1.005,1.802c-0.875,6.248-0.297,18.628-3.054,37.956c-0.489,0.446-0.527,6.126-2.371,8.498
		c-1.844,2.371-0.395,4.545-0.395,4.545l-22.331,42.917c-1.005,1.317-0.75,3.581,0,3.724c2.553-0.347,2.339-3.773,2.898-5.272
		c3.821-11.001,19.828-40.71,19.828-40.71c6.587,1.647,5.193-3.903,6.258-9.156c1.713-8.827,15.81-30.434,18.313-35.572
		c2.503-5.138,6.027-7.411,8.662-11.923C193.239,95.535,187.628,95.722,187.628,95.722z M167.647,134.95
		c1.509-4.213,7.966-21.581,14.456-29.185c0.179-0.209,0.514-0.021,0.428,0.241c-1.704,5.134-10.788,23.281-14.645,29.065
		C167.797,135.203,167.593,135.1,167.647,134.95z"/>
	<path style="fill:#010101;" d="M214.681,137.416c1.473-0.092,1.908-0.818,2.847-1.06c0.378-0.097,0.775,0.048,1.009,0.36
		c2.113,2.81,0.268,6.03-0.892,9.18c-5.27,15.415-5.637,27.859-7.575,30.17c-1.19-0.728,1.924-18.508,3.03-23.715
		C214.313,147.6,213.824,139.704,214.681,137.416z"/>
	<path style="fill:#010101;" d="M214.199,129.36c-0.342,0.342-0.58,0.776-0.674,1.251c-0.126,0.639-0.145,1.472,0.497,1.78
		c1.098,0.527,1.625,0.176,2.064,0c0.439-0.176,1.888-2.02,1.888-2.02s0.922-1.361,0-2.196c-0.263-0.238-0.57-0.358-0.873-0.408
		c-0.74-0.122-1.487,0.178-2.017,0.708L214.199,129.36z"/>
	<path style="fill:#010101;" d="M255.583,110.758c-0.052-0.326-0.343-0.577-0.672-0.552c-0.691,0.054-1.928,0.543-3.077,3.017
		c-1.713,3.689-9.552,18.708-11.133,22.331c-1.054,0.213-0.79-2.371-4.611-0.132c-2.635,1.317-12.819,11.923-16.587,19.367
		c0,0-2.104,3.329,0.579,5.336c2.767,2.767,9.156-4.941,12.187-5.468c0,3.623-1.647,4.183-2.371,5.665c0,0-1.91,3.755,1.482,4.018
		c3.228,0.428,2.931-5.797,4.512-9.683c1.285-4.479,5.006-10.046,5.435-17.984c0,0,9.189-17.061,11.1-19.828
		C254.184,114.3,255.885,112.647,255.583,110.758z M233.389,150.962c-5.746,4.441-9.832,4.902-11.247,4.907
		c-0.27,0.001-0.458-0.272-0.362-0.524c2.872-7.518,10.781-15.382,16.316-16.645c0.321-0.073,0.62,0.185,0.582,0.512
		c-0.391,3.351-3.119,8.524-4.195,10.462C234.208,150.17,233.839,150.614,233.389,150.962z"/>
	<path style="fill:#010101;" d="M254.161,138.32c0,0,2.24-1.154,2.986,0.367c0.922,2.27-3.425,2.795-5.577,5.327
		c0,0,3.916-0.634,5.795,0.328c0.842,0.431,1.07,1.538,0.536,2.319c-1.607,2.351-5.994,6.551-9.968,10.28
		c-5.804,5.446-9.117,9.61-10.416,9.749c0.112-0.807,1.743-2.497,3.645-5.49c2.986-4.699,7.64-10.416,11.462-13.922
		c-2.02,0.22-5.489,3.69-7.334,4.524c0,0-3.469,1.625-4.04-0.483c-0.571-2.108,0.571-4.04,1.757-4.919
		C244.192,145.523,252.873,138.716,254.161,138.32z"/>
	<path style="fill:#BF202E;" d="M225.682,113.222c4.809-2.437,4.611-4.875,4.611-4.875c-2.108-0.659-4.216,0.593-6.521,2.108
		c-2.306,1.515-26.284,18.906-26.811,18.576c-0.527-0.329,3.096-14.229,6.785-22.792c3.689-8.564,2.503-9.552,1.976-9.552
		c-0.527,0-1.054,1.844-1.581,1.976c-0.527,0.132,0-2.946,0-2.946s-0.527,1.102-1.779,1.299c-1.252,0.198-1.647,1.91-1.647,1.91
		c-0.863,3.885-2.938,12.357-3.201,16.038c-0.046,0.649-0.131,1.295-0.301,1.924c-1.356,4.992-6.203,16.776-6.203,16.776
		c-10.979,7.554-17.83,14.009-22.661,16.117c-3.513,1.801-2.942,3.25-2.635,5.36c0.307,2.11,3.118,2.984,5.094,2.369
		c1.976-0.615,11.506-1.23,11.506-1.23c-0.865,4.09-5.05,13.35-8.871,17.742c-1.01,1.01-0.703,2.328-0.22,3.282
		c0.483,0.955,0.615,2.251,2.262,1.658s10.21-22.595,10.21-22.595c13.899,0,23.122,1.844,29.973,5.006
		c6.851,3.162,5.204,7.114,5.204,7.839c0,0.725,1.844,0.79,2.898,0.856c1.054,0.066,3.557-0.263,4.15-1.449
		c0.593-1.186-1.581-3.623-1.581-3.623c-6.39-8.3-39.524-10.737-39.524-10.737c0.066-0.856,8.564-22.2,8.564-22.2
		C203.943,125.936,220.873,115.66,225.682,113.222z M183.786,153.669c0,0-11.726-0.659-11.923-2.701
		c-0.198-2.042,17.654-15.019,18.445-15.019C191.098,135.949,183.786,153.669,183.786,153.669z"/>
</g>
</svg>
